<svg xmlns="http://www.w3.org/2000/svg" viewBox="0 0 900 650"><rect width="900" height="650" fill="#fff"/><g transform="translate(82 124)"><path d="M98 122h430c82 0 148 66 148 148v35H307l-39 201c-8 42-48 69-90 61s-69-48-61-90l34-174H93c-51 0-93-42-93-93 0-37 21-68 52-84z" fill="#101821"/><path d="M522 124h92c75 0 136 61 136 136v45h-96v-28c0-37-30-67-67-67h-65z" fill="#ff6b00"/><rect x="128" y="145" width="330" height="64" rx="18" fill="#222c38"/><rect x="336" y="230" width="72" height="256" rx="31" fill="#ff6b00"/><rect x="356" y="258" width="34" height="190" rx="17" fill="#18212c"/><rect x="460" y="252" width="122" height="50" rx="25" fill="#ff6b00"/><rect x="-60" y="176" width="83" height="68" rx="10" fill="#d2d8df"/><circle cx="172" cy="507" r="24" fill="#18212c"/></g></svg>
