<svg xmlns="http://www.w3.org/2000/svg" viewBox="0 0 900 650"><rect width="900" height="650" fill="#fff"/><g transform="rotate(-19 450 325)"><rect x="190" y="236" width="230" height="74" rx="17" fill="#1d2530"/><path d="M177 250c-54 4-88 32-104 72 58 7 103-3 132-35z" fill="#cfd5dc"/><path d="M375 230h66c16 0 32 12 35 28l63 280c5 22-9 44-31 49-22 4-43-10-48-32l-60-262h-25z" fill="#111820"/><rect x="420" y="309" width="73" height="210" rx="31" fill="#ff6b00"/><rect x="431" y="322" width="47" height="181" rx="23" fill="#202833"/></g><text x="450" y="603" text-anchor="middle" font-family="Arial" font-size="34" font-weight="800" fill="#071536">Martelo Profissional</text></svg>
