<svg xmlns="http://www.w3.org/2000/svg" viewBox="0 0 900 650"><rect width="900" height="650" fill="none"/><g transform="translate(70 105)"><rect x="330" y="120" width="95" height="300" rx="38" fill="#171f2a"/><rect x="353" y="152" width="49" height="230" rx="24" fill="#ff6b00"/><rect x="250" y="62" width="250" height="78" rx="24" fill="#27313e"/><path d="M244 77c-90 5-141 47-164 104 85 12 151-8 192-61z" fill="#d5dbe2"/><path d="M483 70h190c48 0 89 38 91 86l2 42H650v-21c0-19-16-35-35-35H483z" fill="#ff6b00"/><rect x="92" y="300" width="255" height="44" rx="22" fill="#d5dbe2" transform="rotate(-28 219 322)"/><rect x="560" y="278" width="170" height="52" rx="26" fill="#d5dbe2"/><circle cx="630" cy="425" r="84" fill="#171f2a"/><circle cx="630" cy="425" r="52" fill="#ff6b00"/><text x="630" y="442" text-anchor="middle" font-family="Arial" font-size="38" font-weight="900" fill="#171f2a">5m</text></g></svg>
