<svg xmlns="http://www.w3.org/2000/svg" viewBox="0 0 900 650"><rect width="900" height="650" fill="none"/><g transform="translate(80 120)"><g transform="rotate(-18 210 250)"><rect x="88" y="70" width="32" height="270" rx="16" fill="#d9dfe7"/><rect x="60" y="312" width="86" height="160" rx="40" fill="#ff6b00"/><rect x="80" y="338" width="46" height="106" rx="23" fill="#1b2530"/></g><g transform="rotate(24 365 260)"><path d="M350 80c-70 89-65 142 8 184" stroke="#d9dfe7" stroke-width="34" fill="none" stroke-linecap="round"/><path d="M392 80c70 89 65 142-8 184" stroke="#d9dfe7" stroke-width="34" fill="none" stroke-linecap="round"/><circle cx="370" cy="265" r="34" fill="#1b2530"/><path d="M344 294 180 460" stroke="#ff6b00" stroke-width="56" stroke-linecap="round"/><path d="M396 294 560 460" stroke="#ff6b00" stroke-width="56" stroke-linecap="round"/></g><g transform="translate(560 70)"><path d="M85 0h170c72 0 130 58 130 130v64H235v-42c0-20-16-36-36-36H85z" fill="#ff6b00"/><rect x="0" y="0" width="185" height="116" rx="45" fill="#171f2a"/><rect x="62" y="30" width="102" height="30" rx="10" fill="#27313e"/></g></g></svg>
