<svg xmlns="http://www.w3.org/2000/svg" viewBox="0 0 900 650"><rect width="900" height="650" fill="#fff"/><g transform="rotate(-22 450 325)"><path d="M402 244c-78-106-38-168 36-116 42 30 69 75 82 132l-40 20c-21-58-54-95-78-88-22 7-10 34 28 83z" fill="#cfd6dd"/><path d="M503 245c83-102 45-168-31-118-43 29-72 74-87 130l39 22c24-57 58-94 82-86 21 8 9 35-30 81z" fill="#cfd6dd"/><circle cx="452" cy="297" r="36" fill="#17202b"/><path d="M430 325 252 507c-32 33-87 2-75-43 4-13 11-25 21-35l176-174z" fill="#ff6b00"/><path d="M476 324 654 506c32 33 87 1 74-43-3-13-10-25-20-35L531 255z" fill="#ff6b00"/><path d="M395 355 240 514" stroke="#1b2530" stroke-width="34" stroke-linecap="round"/><path d="M510 356 666 515" stroke="#1b2530" stroke-width="34" stroke-linecap="round"/></g><text x="450" y="603" text-anchor="middle" font-family="Arial" font-size="34" font-weight="800" fill="#071536">Alicate Universal</text></svg>
