<svg xmlns="http://www.w3.org/2000/svg" viewBox="0 0 900 650"><rect width="900" height="650" fill="#fff"/><g transform="translate(110 90)"><g fill="#141b24"><rect x="80" y="20" width="18" height="290" rx="9"/><rect x="190" y="20" width="18" height="290" rx="9"/><rect x="300" y="20" width="18" height="290" rx="9"/><rect x="410" y="20" width="18" height="290" rx="9"/><rect x="520" y="20" width="18" height="290" rx="9"/></g><g fill="#ff6b00"><rect x="58" y="292" width="62" height="168" rx="28"/><rect x="168" y="292" width="62" height="168" rx="28"/><rect x="278" y="292" width="62" height="168" rx="28"/><rect x="388" y="292" width="62" height="168" rx="28"/><rect x="498" y="292" width="62" height="168" rx="28"/></g><g fill="#1c2733"><rect x="71" y="320" width="36" height="116" rx="18"/><rect x="181" y="320" width="36" height="116" rx="18"/><rect x="291" y="320" width="36" height="116" rx="18"/><rect x="401" y="320" width="36" height="116" rx="18"/><rect x="511" y="320" width="36" height="116" rx="18"/></g></g><text x="450" y="603" text-anchor="middle" font-family="Arial" font-size="34" font-weight="800" fill="#071536">Jogo de Chaves</text></svg>
