<svg xmlns="http://www.w3.org/2000/svg" viewBox="0 0 900 650"><rect width="900" height="650" fill="#fff"/><g transform="translate(105 105)"><rect x="25" y="60" width="690" height="370" rx="28" fill="#111820"/><rect x="55" y="92" width="630" height="306" rx="18" fill="#202936"/><g fill="#d5dbe2"><rect x="92" y="132" width="42" height="88" rx="10"/><rect x="156" y="132" width="42" height="88" rx="10"/><rect x="220" y="132" width="42" height="88" rx="10"/><rect x="284" y="132" width="42" height="88" rx="10"/><rect x="348" y="132" width="42" height="88" rx="10"/><rect x="412" y="132" width="42" height="88" rx="10"/><rect x="476" y="132" width="42" height="88" rx="10"/><rect x="540" y="132" width="42" height="88" rx="10"/></g><rect x="95" y="278" width="360" height="36" rx="18" fill="#ff6b00"/><rect x="429" y="245" width="70" height="100" rx="18" fill="#d5dbe2"/><circle cx="520" cy="295" r="44" fill="#d5dbe2"/><circle cx="520" cy="295" r="24" fill="#202936"/></g><text x="450" y="603" text-anchor="middle" font-family="Arial" font-size="34" font-weight="800" fill="#071536">Jogo de Soquetes</text></svg>
