<svg xmlns="http://www.w3.org/2000/svg" viewBox="0 0 900 650"><rect width="900" height="650" fill="#fff"/><g transform="translate(165 90)"><path d="M260 75h168c91 0 165 74 165 165v80c0 91-74 165-165 165H260c-91 0-165-74-165-165v-80C95 149 169 75 260 75z" fill="#121a24"/><path d="M286 112h116c76 0 138 62 138 138v58c0 76-62 138-138 138H286c-76 0-138-62-138-138v-58c0-76 62-138 138-138z" fill="#ff6b00"/><circle cx="345" cy="280" r="106" fill="#202936"/><circle cx="345" cy="280" r="72" fill="#ff6b00"/><text x="345" y="295" text-anchor="middle" font-family="Arial" font-size="48" font-weight="900" fill="#202936">5m</text><path d="M545 305h150c26 0 46 20 46 46s-20 46-46 46H545z" fill="#d7dde5"/><rect x="544" y="328" width="135" height="22" fill="#ff6b00"/></g><text x="450" y="603" text-anchor="middle" font-family="Arial" font-size="34" font-weight="800" fill="#071536">Trena Emborrachada</text></svg>
