<svg xmlns="http://www.w3.org/2000/svg" viewBox="0 0 900 650"><rect width="900" height="650" fill="#fff"/><g transform="rotate(-23 450 325)"><path d="M220 198c39-65 119-83 177-45l-67 67 48 48 70-65c38 62 14 147-58 183-45 23-98 18-137-9L98 531c-27 27-73 27-100 0s-27-73 0-100l156-155c-10-27-7-54 66-78z" fill="#1a222b"/><path d="M69 469a33 33 0 1 0 47 47 33 33 0 0 0-47-47z" fill="#fff"/><rect x="208" y="292" width="337" height="48" rx="24" fill="#ff6b00"/></g><text x="450" y="603" text-anchor="middle" font-family="Arial" font-size="34" font-weight="800" fill="#071536">Chave Ajustável</text></svg>
